<?xml version="1.0" encoding="UTF-8" standalone="no"?><svg xmlns="http://www.w3.org/2000/svg" xmlns:xlink="http://www.w3.org/1999/xlink" contentStyleType="text/css" height="408px" preserveAspectRatio="none" style="width:971px;height:408px;background:#FFFFFF;" version="1.1" viewBox="0 0 971 408" width="971px" zoomAndPan="magnify"><defs/><g><!--MD5=[808b8650a6cb2fe797e05b3058147036]
class MathExpression--><g id="elem_MathExpression"><rect codeLine="1" fill="#F1F1F1" height="80.5938" id="MathExpression" rx="2.5" ry="2.5" style="stroke:#181818;stroke-width:0.5;" width="144" x="583.5" y="7"/><ellipse cx="598.5" cy="23" fill="#B4A7E5" rx="11" ry="11" style="stroke:#181818;stroke-width:1.0;"/><path d="M599.4531,19.7813 L601.1719,19.7813 C601.5625,19.7813 601.75,19.75 601.875,19.6719 C602.1406,19.5156 602.2813,19.2344 602.2813,18.9375 C602.2813,18.6719 602.1719,18.4063 601.9375,18.2344 C601.7656,18.125 601.625,18.0938 601.1719,18.0938 L596.0313,18.0938 C595.5938,18.0938 595.4688,18.1094 595.3125,18.2031 C595.0625,18.3594 594.9063,18.6563 594.9063,18.9375 C594.9063,19.2188 595.0469,19.4688 595.2656,19.6406 C595.4219,19.75 595.6094,19.7813 596.0313,19.7813 L597.75,19.7813 L597.75,26.2969 L596.0313,26.2969 C595.5938,26.2969 595.4688,26.3125 595.3125,26.4219 C595.0625,26.5781 594.9063,26.8594 594.9063,27.1563 C594.9063,27.4063 595.0469,27.6719 595.2656,27.8281 C595.4219,27.9531 595.625,28 596.0313,28 L601.1719,28 C601.9219,28 602.2813,27.7188 602.2813,27.1563 C602.2813,26.875 602.1719,26.625 601.9375,26.4531 C601.7656,26.3281 601.625,26.2969 601.1719,26.2969 L599.4531,26.2969 L599.4531,19.7813 Z " fill="#000000"/><text fill="#000000" font-family="sans-serif" font-size="14" font-style="italic" lengthAdjust="spacing" textLength="112" x="612.5" y="27.8467">MathExpression</text><line style="stroke:#181818;stroke-width:0.5;" x1="584.5" x2="726.5" y1="39" y2="39"/><line style="stroke:#181818;stroke-width:0.5;" x1="584.5" x2="726.5" y1="47" y2="47"/><ellipse cx="594.5" cy="60.6484" fill="#84BE84" rx="3" ry="3" style="stroke:#038048;stroke-width:1.0;"/><text fill="#000000" font-family="sans-serif" font-size="14" font-style="italic" lengthAdjust="spacing" textLength="71" x="603.5" y="63.9951">int apply()</text><ellipse cx="594.5" cy="76.9453" fill="#84BE84" rx="3" ry="3" style="stroke:#038048;stroke-width:1.0;"/><text fill="#000000" font-family="sans-serif" font-size="14" font-style="italic" lengthAdjust="spacing" textLength="112" x="603.5" y="80.292">String toString()</text></g><!--MD5=[78ae81b702b18c81dffd4465e160d97b]
class BinaryExpression--><g id="elem_BinaryExpression"><rect codeLine="6" fill="#F1F1F1" height="96.8906" id="BinaryExpression" rx="2.5" ry="2.5" style="stroke:#181818;stroke-width:0.5;" width="443" x="246" y="148"/><ellipse cx="401.75" cy="164" fill="#A9DCDF" rx="11" ry="11" style="stroke:#181818;stroke-width:1.0;"/><path d="M403.8281,165.8125 L404.2188,166.7969 L403.8281,166.7969 C403.375,166.7969 403.2656,166.8125 403.1094,166.9219 C402.8594,167.0781 402.7031,167.3594 402.7031,167.6563 C402.7031,167.9219 402.8438,168.1719 403.0625,168.3281 C403.2031,168.4531 403.4063,168.5 403.8281,168.5 L406.1875,168.5 C406.5469,168.5 406.7656,168.4688 406.9063,168.375 C407.1563,168.2344 407.3125,167.9375 407.3125,167.6563 C407.3125,167.375 407.1719,167.125 406.9531,166.9688 C406.7813,166.8281 406.625,166.7969 406.1563,166.7969 L402.7656,158.5938 L399.0938,158.5938 C398.6406,158.5938 398.5156,158.6094 398.3594,158.7031 C398.1094,158.875 397.9531,159.1563 397.9531,159.4375 C397.9531,159.7188 398.0938,159.9688 398.3125,160.1406 C398.4844,160.25 398.6563,160.2813 399.0938,160.2813 L400.1719,160.2813 L397.5313,166.7969 C397.1094,166.7969 396.9531,166.8125 396.7969,166.9219 C396.5469,167.0781 396.3906,167.3594 396.3906,167.6563 C396.3906,168.2188 396.7656,168.5 397.5156,168.5 L399.7813,168.5 C400.1406,168.5 400.3594,168.4688 400.4844,168.375 C400.75,168.2344 400.8906,167.9375 400.8906,167.6563 C400.8906,167.375 400.7656,167.125 400.5469,166.9531 C400.375,166.8281 400.2344,166.7969 399.7813,166.7969 L399.3906,166.7969 L399.7813,165.8125 L403.8281,165.8125 Z M403.125,164.1094 L400.4531,164.1094 L401.7969,160.8438 L403.125,164.1094 Z " fill="#000000"/><text fill="#000000" font-family="sans-serif" font-size="14" font-style="italic" lengthAdjust="spacing" textLength="123" x="422.25" y="168.8467">BinaryExpression</text><line style="stroke:#181818;stroke-width:0.5;" x1="247" x2="688" y1="180" y2="180"/><line style="stroke:#181818;stroke-width:0.5;" x1="247" x2="688" y1="188" y2="188"/><ellipse cx="257" cy="201.6484" fill="#84BE84" rx="3" ry="3" style="stroke:#038048;stroke-width:1.0;"/><text fill="#000000" font-family="sans-serif" font-size="14" lengthAdjust="spacing" textLength="417" x="266" y="204.9951">BinaryExpression(MathExpression o1, MathExpression o2);</text><ellipse cx="257" cy="217.9453" fill="#84BE84" rx="3" ry="3" style="stroke:#038048;stroke-width:1.0;"/><text fill="#000000" font-family="sans-serif" font-size="14" font-style="italic" lengthAdjust="spacing" textLength="143" x="266" y="221.292">String getOperator()</text><ellipse cx="257" cy="234.2422" fill="#84BE84" rx="3" ry="3" style="stroke:#038048;stroke-width:1.0;"/><text fill="#000000" font-family="sans-serif" font-size="14" lengthAdjust="spacing" textLength="118" x="266" y="237.5889">String toString()</text></g><!--MD5=[b648e259c8bc7cbd94a1463eff936242]
class AddExpression--><g id="elem_AddExpression"><rect codeLine="12" fill="#F1F1F1" height="96.8906" id="AddExpression" rx="2.5" ry="2.5" style="stroke:#181818;stroke-width:0.5;" width="443" x="7" y="305"/><ellipse cx="171.25" cy="321" fill="#ADD1B2" rx="11" ry="11" style="stroke:#181818;stroke-width:1.0;"/><path d="M173.5938,316.6719 C172.6563,316.2344 172.0625,316.0938 171.1875,316.0938 C168.5625,316.0938 166.5625,318.1719 166.5625,320.8906 L166.5625,322.0156 C166.5625,324.5938 168.6719,326.4844 171.5625,326.4844 C172.7813,326.4844 173.9375,326.1875 174.6875,325.6406 C175.2656,325.2344 175.5938,324.7813 175.5938,324.3906 C175.5938,323.9375 175.2031,323.5469 174.7344,323.5469 C174.5156,323.5469 174.3125,323.625 174.125,323.8125 C173.6719,324.2969 173.6719,324.2969 173.4844,324.3906 C173.0625,324.6563 172.375,324.7813 171.6094,324.7813 C169.5625,324.7813 168.2656,323.6875 168.2656,321.9844 L168.2656,320.8906 C168.2656,319.1094 169.5156,317.7969 171.25,317.7969 C171.8281,317.7969 172.4375,317.9531 172.9063,318.2031 C173.3906,318.4844 173.5625,318.7031 173.6563,319.1094 C173.7188,319.5156 173.75,319.6406 173.8906,319.7656 C174.0313,319.9063 174.2656,320.0156 174.4844,320.0156 C174.75,320.0156 175.0156,319.875 175.1875,319.6563 C175.2969,319.5 175.3281,319.3125 175.3281,318.8906 L175.3281,317.4688 C175.3281,317.0313 175.3125,316.9063 175.2188,316.75 C175.0625,316.4844 174.7813,316.3438 174.4844,316.3438 C174.1875,316.3438 173.9844,316.4375 173.7656,316.75 L173.5938,316.6719 Z " fill="#000000"/><text fill="#000000" font-family="sans-serif" font-size="14" lengthAdjust="spacing" textLength="106" x="191.75" y="325.8467">AddExpression</text><line style="stroke:#181818;stroke-width:0.5;" x1="8" x2="449" y1="337" y2="337"/><line style="stroke:#181818;stroke-width:0.5;" x1="8" x2="449" y1="345" y2="345"/><ellipse cx="18" cy="358.6484" fill="#84BE84" rx="3" ry="3" style="stroke:#038048;stroke-width:1.0;"/><text fill="#000000" font-family="sans-serif" font-size="14" lengthAdjust="spacing" textLength="417" x="27" y="361.9951">BinaryExpression(MathExpression o1, MathExpression o2);</text><ellipse cx="18" cy="374.9453" fill="#84BE84" rx="3" ry="3" style="stroke:#038048;stroke-width:1.0;"/><text fill="#000000" font-family="sans-serif" font-size="14" lengthAdjust="spacing" textLength="74" x="27" y="378.292">int apply()</text><ellipse cx="18" cy="391.2422" fill="#84BE84" rx="3" ry="3" style="stroke:#038048;stroke-width:1.0;"/><text fill="#000000" font-family="sans-serif" font-size="14" lengthAdjust="spacing" textLength="154" x="27" y="394.5889">String getOperator();</text></g><!--MD5=[f956f446af72b1b4345935272d54d26b]
class SubtractExpression--><g id="elem_SubtractExpression"><rect codeLine="18" fill="#F1F1F1" height="96.8906" id="SubtractExpression" rx="2.5" ry="2.5" style="stroke:#181818;stroke-width:0.5;" width="443" x="485" y="305"/><ellipse cx="631.75" cy="321" fill="#ADD1B2" rx="11" ry="11" style="stroke:#181818;stroke-width:1.0;"/><path d="M634.0938,316.6719 C633.1563,316.2344 632.5625,316.0938 631.6875,316.0938 C629.0625,316.0938 627.0625,318.1719 627.0625,320.8906 L627.0625,322.0156 C627.0625,324.5938 629.1719,326.4844 632.0625,326.4844 C633.2813,326.4844 634.4375,326.1875 635.1875,325.6406 C635.7656,325.2344 636.0938,324.7813 636.0938,324.3906 C636.0938,323.9375 635.7031,323.5469 635.2344,323.5469 C635.0156,323.5469 634.8125,323.625 634.625,323.8125 C634.1719,324.2969 634.1719,324.2969 633.9844,324.3906 C633.5625,324.6563 632.875,324.7813 632.1094,324.7813 C630.0625,324.7813 628.7656,323.6875 628.7656,321.9844 L628.7656,320.8906 C628.7656,319.1094 630.0156,317.7969 631.75,317.7969 C632.3281,317.7969 632.9375,317.9531 633.4063,318.2031 C633.8906,318.4844 634.0625,318.7031 634.1563,319.1094 C634.2188,319.5156 634.25,319.6406 634.3906,319.7656 C634.5313,319.9063 634.7656,320.0156 634.9844,320.0156 C635.25,320.0156 635.5156,319.875 635.6875,319.6563 C635.7969,319.5 635.8281,319.3125 635.8281,318.8906 L635.8281,317.4688 C635.8281,317.0313 635.8125,316.9063 635.7188,316.75 C635.5625,316.4844 635.2813,316.3438 634.9844,316.3438 C634.6875,316.3438 634.4844,316.4375 634.2656,316.75 L634.0938,316.6719 Z " fill="#000000"/><text fill="#000000" font-family="sans-serif" font-size="14" lengthAdjust="spacing" textLength="141" x="652.25" y="325.8467">SubtractExpression</text><line style="stroke:#181818;stroke-width:0.5;" x1="486" x2="927" y1="337" y2="337"/><line style="stroke:#181818;stroke-width:0.5;" x1="486" x2="927" y1="345" y2="345"/><ellipse cx="496" cy="358.6484" fill="#84BE84" rx="3" ry="3" style="stroke:#038048;stroke-width:1.0;"/><text fill="#000000" font-family="sans-serif" font-size="14" lengthAdjust="spacing" textLength="417" x="505" y="361.9951">BinaryExpression(MathExpression o1, MathExpression o2);</text><ellipse cx="496" cy="374.9453" fill="#84BE84" rx="3" ry="3" style="stroke:#038048;stroke-width:1.0;"/><text fill="#000000" font-family="sans-serif" font-size="14" lengthAdjust="spacing" textLength="74" x="505" y="378.292">int apply()</text><ellipse cx="496" cy="391.2422" fill="#84BE84" rx="3" ry="3" style="stroke:#038048;stroke-width:1.0;"/><text fill="#000000" font-family="sans-serif" font-size="14" lengthAdjust="spacing" textLength="154" x="505" y="394.5889">String getOperator();</text></g><!--MD5=[3c142153d716947720d478779ec41d2c]
class ConstantExpression--><g id="elem_ConstantExpression"><rect codeLine="24" fill="#F1F1F1" height="96.8906" id="ConstantExpression" rx="2.5" ry="2.5" style="stroke:#181818;stroke-width:0.5;" width="240" x="724.5" y="148"/><ellipse cx="768.3" cy="164" fill="#ADD1B2" rx="11" ry="11" style="stroke:#181818;stroke-width:1.0;"/><path d="M770.6438,159.6719 C769.7063,159.2344 769.1125,159.0938 768.2375,159.0938 C765.6125,159.0938 763.6125,161.1719 763.6125,163.8906 L763.6125,165.0156 C763.6125,167.5938 765.7219,169.4844 768.6125,169.4844 C769.8313,169.4844 770.9875,169.1875 771.7375,168.6406 C772.3156,168.2344 772.6438,167.7813 772.6438,167.3906 C772.6438,166.9375 772.2531,166.5469 771.7844,166.5469 C771.5656,166.5469 771.3625,166.625 771.175,166.8125 C770.7219,167.2969 770.7219,167.2969 770.5344,167.3906 C770.1125,167.6563 769.425,167.7813 768.6594,167.7813 C766.6125,167.7813 765.3156,166.6875 765.3156,164.9844 L765.3156,163.8906 C765.3156,162.1094 766.5656,160.7969 768.3,160.7969 C768.8781,160.7969 769.4875,160.9531 769.9563,161.2031 C770.4406,161.4844 770.6125,161.7031 770.7063,162.1094 C770.7688,162.5156 770.8,162.6406 770.9406,162.7656 C771.0813,162.9063 771.3156,163.0156 771.5344,163.0156 C771.8,163.0156 772.0656,162.875 772.2375,162.6563 C772.3469,162.5 772.3781,162.3125 772.3781,161.8906 L772.3781,160.4688 C772.3781,160.0313 772.3625,159.9063 772.2688,159.75 C772.1125,159.4844 771.8313,159.3438 771.5344,159.3438 C771.2375,159.3438 771.0344,159.4375 770.8156,159.75 L770.6438,159.6719 Z " fill="#000000"/><text fill="#000000" font-family="sans-serif" font-size="14" lengthAdjust="spacing" textLength="144" x="788.7" y="168.8467">ConstantExpression</text><line style="stroke:#181818;stroke-width:0.5;" x1="725.5" x2="963.5" y1="180" y2="180"/><line style="stroke:#181818;stroke-width:0.5;" x1="725.5" x2="963.5" y1="188" y2="188"/><ellipse cx="735.5" cy="201.6484" fill="#84BE84" rx="3" ry="3" style="stroke:#038048;stroke-width:1.0;"/><text fill="#000000" font-family="sans-serif" font-size="14" lengthAdjust="spacing" textLength="214" x="744.5" y="204.9951">ConstantExpression(int num);</text><ellipse cx="735.5" cy="217.9453" fill="#84BE84" rx="3" ry="3" style="stroke:#038048;stroke-width:1.0;"/><text fill="#000000" font-family="sans-serif" font-size="14" lengthAdjust="spacing" textLength="74" x="744.5" y="221.292">int apply()</text><ellipse cx="735.5" cy="234.2422" fill="#84BE84" rx="3" ry="3" style="stroke:#038048;stroke-width:1.0;"/><text fill="#000000" font-family="sans-serif" font-size="14" lengthAdjust="spacing" textLength="118" x="744.5" y="237.5889">String toString()</text></g><!--MD5=[a88f8ed3440e28061db027ff4046baa4]
reverse link MathExpression to BinaryExpression--><g id="link_MathExpression_BinaryExpression"><path d="M588.636,100.782 C569.019,116.121 547.677,132.809 528.449,147.843 " fill="none" id="MathExpression-backto-BinaryExpression" style="stroke:#181818;stroke-width:1.0;stroke-dasharray:7.0,7.0;"/><polygon fill="none" points="584.557,95.085,604.624,88.28,593.181,106.114,584.557,95.085" style="stroke:#181818;stroke-width:1.0;"/></g><!--MD5=[e771e8ab4c9025bfc324d70324167d7b]
reverse link BinaryExpression to AddExpression--><g id="link_BinaryExpression_AddExpression"><path d="M377.326,255.981 C352.5,272.082 325.874,289.349 302.105,304.7644 " fill="none" id="BinaryExpression-backto-AddExpression" style="stroke:#181818;stroke-width:1.0;"/><polygon fill="none" points="373.579,250.068,394.168,245.058,381.197,261.814,373.579,250.068" style="stroke:#181818;stroke-width:1.0;"/></g><!--MD5=[e973ec17725bd570505b22a1735bae74]
reverse link BinaryExpression to SubtractExpression--><g id="link_BinaryExpression_SubtractExpression"><path d="M557.674,255.981 C582.5,272.082 609.126,289.349 632.895,304.7644 " fill="none" id="BinaryExpression-backto-SubtractExpression" style="stroke:#181818;stroke-width:1.0;"/><polygon fill="none" points="553.803,261.814,540.832,245.058,561.421,250.068,553.803,261.814" style="stroke:#181818;stroke-width:1.0;"/></g><!--MD5=[0d07bf22255b25f29c02de1989e90a2f]
reverse link MathExpression to ConstantExpression--><g id="link_MathExpression_ConstantExpression"><path d="M722.72,100.782 C742.441,116.121 763.897,132.809 783.227,147.843 " fill="none" id="MathExpression-backto-ConstantExpression" style="stroke:#181818;stroke-width:1.0;stroke-dasharray:7.0,7.0;"/><polygon fill="none" points="718.136,106.085,706.646,88.28,726.731,95.034,718.136,106.085" style="stroke:#181818;stroke-width:1.0;"/></g><!--MD5=[96c3adb0209dabc5ce695dd1b9065ac8]
@startuml
interface MathExpression {
  +{abstract} int apply()
  +{abstract} String toString()
}

abstract class BinaryExpression implements MathExpression {
  +BinaryExpression(MathExpression o1, MathExpression o2);
  +{abstract} String getOperator()
  +String toString()
}

class AddExpression extends BinaryExpression {
  +BinaryExpression(MathExpression o1, MathExpression o2);
  +int apply()
  +String getOperator();
}

class SubtractExpression extends BinaryExpression {
  +BinaryExpression(MathExpression o1, MathExpression o2);
  +int apply()
  +String getOperator();
}

class ConstantExpression implements MathExpression {
  +ConstantExpression(int num);
  +int apply()
  +String toString()
}
@enduml

PlantUML version 1.2022.10beta1(Unknown compile time)
(GPL source distribution)
Java Runtime: Java(TM) SE Runtime Environment
JVM: Java HotSpot(TM) 64-Bit Server VM
Default Encoding: UTF-8
Language: en
Country: US
--></g></svg>